<svg xmlns="http://www.w3.org/2000/svg" width="40" height="40" viewBox="0 0 40 40"><title>  Phone Icon</title><desc>  Created with sketchtool.</desc><defs><polyline points="0 0 51 0 51 45 0 45"/></defs><g fill="none"><g transform="translate(-27 -52)translate(21 50)"><mask fill="white"><use xlink:href="#path-1"/></mask><path d="M45 32.4L45 34.1C44.5 37.9 40.7 40.9 36 41 32.7 41 28.7 39.2 25.5 37.6 16.9 33.1 8.9 23.4 7 13.3L7 11C8.1 6.7 9.8 2.9 15.4 3 16.7 4.3 17.3 5.7 18.3 7.4 19 8.6 20.8 11 20.7 12.2 20.6 14.9 16.2 15.4 16 17.7 15.9 19 17.7 21.4 18.5 22.5 19.4 23.9 20.6 25.4 21.7 26.5 22.9 27.7 28.3 32.3 30.5 32 32.5 31.8 33.4 27.4 35.8 27.3 36.8 27.2 39 28.7 40.4 29.5 42.3 30.6 44.1 31.6 45 32.4" mask="url(#mask-2)" style="stroke-width:2;stroke:#252B33"/></g></g></svg>